<svg width="183" height="49" viewBox="0 0 183 49" fill="none" xmlns="http://www.w3.org/2000/svg">
<path fill-rule="evenodd" clip-rule="evenodd" d="M180.684 26.4689C180.889 25.5791 181.137 25.0501 181.679 25.0501C182.377 25.0501 182.61 25.8844 182.453 26.9648C181.8 31.4543 179.86 33.1604 177.488 33.1604C176.377 33.1604 173.189 32.6486 172.086 28.0748C171.273 24.6985 171.474 18.5252 171.563 16.6379C171.565 16.5867 171.493 16.3235 171.336 16.6574L171.302 16.7302C170.853 17.6903 169.721 20.1093 169.035 22.7795C167.956 26.9761 167.863 29.8967 167.916 30.3693C168.025 31.3388 166.805 31.4912 166.222 31.4912C165.305 31.4912 164.179 31.4191 163.267 29.8955C162.948 29.3628 162.532 27.6793 162.221 24.8314C161.813 21.1088 161.75 18.3013 161.725 17.2178L161.723 17.0953C161.711 16.6103 161.406 16.6859 161.135 17.1442L161.094 17.2134C160.595 18.0548 159.601 19.7313 158.537 23.8744C158.033 25.8348 157.959 28.3181 157.901 30.2837C157.883 30.8633 157.868 31.3979 157.842 31.8608C157.8 32.6349 157.492 32.9348 157.097 33.0104C156.526 33.1194 154.985 33.3701 153.473 32.84C153.131 32.7201 152.662 32.4721 152.581 32.2743C152.449 31.9513 152.365 30.9262 152.312 29.6725C151.04 32.5198 149.471 33.1604 147.819 33.1604C146.232 33.1604 143.462 32.1199 142.892 28.7518C142.892 28.7518 142.551 29.423 141.952 30.1994C139.293 33.6408 134.057 34.5197 131.348 30.4609C131.216 30.2631 131.095 30.0491 130.979 29.8278C130.02 31.8125 128.23 33.1491 126.358 33.1491C124.759 33.1491 122.063 32.1243 120.867 28.9391C119.144 24.3525 120.98 17.5003 121.143 16.8935L121.149 16.8711C121.244 16.5149 121.096 16.4157 120.582 16.4474C118.976 16.5469 117.47 16.5347 117.47 16.5347C116.583 19.1807 114.851 22.5808 113.234 25.1126C111.751 27.4356 110.14 29.4206 108.71 30.991C108.728 32.1723 108.749 33.3079 108.768 34.3456V34.3457V34.3457C108.782 35.1049 108.795 35.8116 108.805 36.4457C108.866 40.1936 108.036 43.9884 106.767 45.7515C105.326 47.7546 102.978 49.186 100.24 48.9804C97.6575 48.7867 94.2493 47.3088 94.539 43.3323C94.7663 40.218 97.8526 37.543 101.918 34.0195L101.935 34.0049C102.859 33.2035 104.365 31.8972 104.365 31.8972L104.288 29.7594C104.193 29.8912 104.085 30.0377 103.961 30.1994C101.321 33.6461 96.0658 34.5197 93.3569 30.4609C93.1773 30.1919 93.0128 29.908 92.8621 29.6108C91.5761 32.3488 89.7412 33.1433 87.9641 33.1433C86.3773 33.1433 83.606 32.0062 83.221 28.7518C83.221 28.7518 83.0967 29.1345 82.2806 30.1994C79.6409 33.6461 74.3858 34.5197 71.6769 30.4609C71.1114 29.6134 70.6735 28.6116 70.3776 27.4594C69.3471 30.2858 66.9907 33.1587 64.6403 33.1587C61.1248 33.1587 59.1014 30.2276 58.626 25.0472C55.97 31.0454 52.1547 33.3707 47.3919 33.22C46.1695 33.1814 44.2528 32.8411 43.361 32.4657C42.3253 32.0295 41.3262 31.5307 41.6005 30.5874C41.8825 29.6178 42.3763 28.8347 43.2398 28.219C43.5722 27.982 44.1267 28.0498 44.4899 28.2757C44.783 28.4582 45.003 28.6159 45.213 28.7663C45.4871 28.9627 45.7442 29.147 46.1249 29.3584C48.4313 30.638 49.7271 29.3215 50.0712 28.044C50.5211 26.373 49.8431 24.6116 47.7778 22.7579C47.2206 22.2579 46.6632 21.7779 46.1296 21.3184L46.1296 21.3183L46.1295 21.3183C45.812 21.0449 45.5029 20.7787 45.2073 20.5199C44.0701 22.3325 42.4873 24.8474 40.8572 27.4123C38.2424 31.5281 35.8032 33.154 34.0728 33.154C31.8111 33.154 30.2283 31.629 30.5579 23.4015C30.6229 21.7779 30.7045 20.0022 30.7747 18.4747L30.7747 18.4742L30.7748 18.4719C30.8375 17.1085 30.8911 15.9429 30.9156 15.2601C30.9273 14.9326 30.6843 14.9445 30.4715 15.1446C29.2544 16.2892 26.6663 19.5122 24.681 26.1179C23.5956 29.7292 23.4298 31.0909 23.3112 32.0649L23.3112 32.065L23.3112 32.0651L23.3112 32.0653L23.3111 32.0657C23.2904 32.2357 23.2711 32.394 23.2486 32.5503C23.1226 33.428 20.6938 33.1331 20.2504 33.0467C19.774 32.9537 19.485 32.7283 19.235 32.4328C18.9849 32.1368 18.7829 31.6392 18.6581 31.0276C18.5329 30.4169 18.5 29.0205 18.5 27.8229L18.6067 12.0664C18.6067 11.5546 18.8982 11.2978 19.4819 11.2978C20.707 11.2978 22.085 11.8396 22.601 12.1045C22.9054 12.2607 23.0386 12.489 23.0386 12.7251L22.9731 22.7963C22.9731 22.7963 23.7311 20.8729 24.1171 19.8173C27.1787 11.4423 30.4189 11.2978 31.542 11.2978C32.2923 11.2978 33.5879 11.9925 34.1949 12.3459C35.194 12.9275 35.79 13.5696 35.7448 14.6968C35.7119 15.5165 35.6771 16.3294 35.6431 17.122L35.6429 17.1283L35.6427 17.1316L35.6427 17.1332L35.6426 17.1336L35.6426 17.1348C35.5356 19.6325 35.4373 21.9264 35.4373 23.5865L35.4373 23.6858C35.4371 26.1966 35.4369 28.8393 36.3669 28.8393C37.4794 28.8393 38.9314 26.4589 40.8271 23.3511C40.9398 23.1663 41.0541 22.9789 41.1699 22.7894C41.9138 21.5726 42.7921 20.0037 43.4314 18.8384C43.345 18.7442 43.2613 18.6506 43.1842 18.559C42.1269 17.305 41.8391 16.0982 42.3788 14.4711C43.0753 12.3712 45.4106 10.4042 48.2428 11.0201C49.9568 11.3926 49.9267 13.0816 49.2283 14.558C48.2428 16.6423 47.1314 17.6778 47.1314 17.6778C49.0503 19.0205 50.7653 20.2457 51.634 20.8927C53.992 22.6489 55.3011 24.7235 54.6603 27.4862C54.6603 27.4862 57.6444 25.2304 58.4916 21.0547C58.4901 20.82 58.4888 20.5783 58.4888 20.3274C58.4888 17.9675 58.5574 10.3245 58.5574 10.3245C57.9461 10.3071 57.2113 10.29 56.4641 10.2726C55.3298 10.2461 54.1668 10.219 53.3635 10.1895C52.2054 10.1477 53.1095 6.74085 53.9472 6.74085C54.398 6.74085 55.3932 6.78251 56.3884 6.82417C57.3834 6.86583 58.3783 6.90748 58.8289 6.90748C58.8289 6.90748 58.9138 2.54973 59.0777 1.06196C59.1866 0.0816446 59.7438 -0.152746 60.972 0.0868792C61.861 0.260201 62.6111 0.420726 63.4493 0.756027L63.4776 0.767254C63.8258 0.905565 64.3942 1.13131 64.3556 1.55895C64.3088 2.08618 64.108 7.07702 64.108 7.07702C64.108 7.07702 66.3467 7.23377 67.1509 7.25092C68.1073 7.27012 70.5197 7.39167 70.861 7.53039C71.6141 7.8369 70.9112 10.3134 70.1814 10.3486C69.126 10.3997 68.3156 10.4008 67.5331 10.4019C67.237 10.4024 66.9449 10.4028 66.645 10.4059C66.221 10.4105 64.0312 10.4457 64.0312 10.4457C63.9727 11.1704 63.6271 18.6893 63.6271 23.9703C63.6271 27.9349 64.593 29.7952 65.6072 29.7952C67.3403 29.7952 69.4591 26.5978 69.9388 23.8232C69.9305 22.8464 69.9945 21.8009 70.1393 20.6848C70.6406 16.8223 71.6145 15.0774 72.8174 13.5036C74.6622 11.0899 77.0765 10.5016 79.4032 11.1547C80.267 11.3967 81.5653 12.2316 82.3725 13.4312V12.566C82.3725 12.1906 82.7904 11.6872 83.3849 11.6456C83.8354 11.6139 84.4221 11.6686 85.1017 11.8172C85.7512 11.9597 87.147 12.3444 87.1584 13.1078C87.1598 13.2124 87.15 13.4672 87.1359 13.8337L87.1357 13.8381L87.1356 13.8401L87.1356 13.8411C87.1161 14.3453 87.0886 15.0586 87.0707 15.8821C87.0527 16.7182 87.0283 17.442 87.004 18.1655V18.1656V18.1658V18.1662L87.004 18.1667C86.9562 19.5886 86.9084 21.0098 86.9084 23.2817C86.9084 29.1595 87.7832 30.4454 89.3208 30.4454C90.5235 30.4454 91.5872 28.6372 91.9571 26.9081C91.6142 25.181 91.5678 23.1313 91.8194 20.7191C92.0894 18.1309 93.0423 15.429 94.4975 13.5036C96.3287 11.0806 98.7566 10.5016 101.083 11.1547C101.947 11.3967 103.245 12.2316 104.053 13.4312C104.053 13.4312 104.053 12.7562 104.049 12.6463C104.034 12.0641 104.625 11.572 105.607 11.6442C106.385 11.7012 107.134 11.8646 107.769 12.1007C108.486 12.3677 108.83 12.5788 108.839 13.1369C108.84 13.2411 108.831 13.4889 108.817 13.8467L108.816 13.8473C108.797 14.3439 108.769 15.0521 108.751 15.8821C108.719 17.3408 108.647 21.3868 108.664 26.528C108.665 26.8892 108.667 27.2524 108.67 27.6153C109.426 26.6405 110.012 25.7236 110.778 24.4862C112.207 22.1766 113.592 18.9824 114.157 16.5367C114.157 16.5367 112.435 15.5951 112.714 13.5987C112.89 12.3406 113.353 11.641 114.034 11.0477C115.175 10.054 118.75 9.8016 118.365 12.9127C118.292 13.5059 118.203 13.8424 118.203 13.8424C119.681 13.6353 121.296 13.3657 122.426 13.1151C124.012 12.7635 125.115 13.0493 125.633 13.6089C126.198 14.219 126.423 14.8555 126.146 16.0714C126.03 16.5818 125.915 17.0639 125.805 17.5277L125.805 17.5295C125.299 19.657 124.886 21.3986 124.813 23.7045C124.678 27.9759 125.838 30.4454 127.438 30.4454C128.54 30.4454 129.547 29.5373 130.089 27.3207C129.64 25.3563 129.558 23.0336 129.81 20.7429C130.156 17.6098 131.033 15.429 132.488 13.5036C134.32 11.0806 136.747 10.5013 139.074 11.1547C139.938 11.3967 141.236 12.2316 142.043 13.4312C142.043 13.4312 142.04 12.8862 142.04 12.5992C142.04 12.0644 142.484 11.6759 143.11 11.6421C143.553 11.6183 144.12 11.6741 144.773 11.8172C145.422 11.9594 146.818 12.3441 146.829 13.1075C146.831 13.213 146.821 13.4706 146.807 13.8411L146.806 13.8425C146.787 14.3465 146.76 15.0592 146.742 15.8818C146.724 16.7185 146.699 17.4426 146.675 18.1666C146.627 19.5885 146.579 21.0098 146.579 23.2817C146.579 29.1595 147.305 30.4454 148.842 30.4454C150.378 30.4454 151.79 27.3693 152.226 25.1033C152.225 24.855 152.224 24.6214 152.224 24.4071C152.224 20.0403 152.322 14.0102 152.344 12.6334L152.344 12.6293L152.344 12.6264L152.344 12.6108L152.345 12.5824L152.345 12.5619C152.347 12.4289 152.349 12.3543 152.349 12.3465C152.349 11.7401 152.541 11.3243 153.329 11.3243C153.967 11.3243 155.47 11.6741 156.233 11.8832C156.402 11.93 156.964 12.1883 156.961 12.9633C156.952 15.0175 156.943 20.4332 156.943 20.4332C156.943 20.4332 157.429 19.0755 158.127 17.0683C158.986 14.5988 159.813 12.5154 160.527 11.7413C161.35 10.7947 163.638 11.5904 164.392 12.0402C165.553 12.7335 165.776 13.5804 165.783 14.5752C165.817 19.2234 166.066 21.6512 166.211 23.0557C166.225 23.1919 166.238 23.3184 166.25 23.4364C166.269 23.6382 166.381 23.6205 166.392 23.5341C166.601 21.8669 167.487 17.7622 169.752 12.5919C170.551 10.768 172.153 11.3182 173.26 11.6985L173.272 11.7023C175.846 12.5867 176.111 13.4847 176.059 14.3923C175.81 18.8097 175.778 23.2503 175.974 25.6625C176.222 28.7303 177.189 30.2625 178.264 30.2625C179.227 30.2625 179.974 29.564 180.684 26.4689ZM140.144 28.7467C140.814 27.3803 141.354 25.4431 141.467 22.965C141.696 17.9325 140.723 15.2109 138.643 15.0126C136.534 14.8119 135.26 17.0372 134.804 19.9838C134.356 22.8763 134.385 26.3381 135.009 28.4108C136.152 32.2132 138.846 31.3919 140.144 28.7467ZM104.493 37.5528C104.465 41.6774 103.84 45.2937 102.499 46.344C100.597 47.8334 98.0414 46.7162 98.5707 43.7065C99.0389 41.0432 101.254 38.3233 104.498 35C104.498 35 104.505 35.7579 104.493 37.5528ZM103.135 28.743C103.76 27.4609 104.333 25.1919 104.451 22.9331C104.744 17.3288 103.72 15 101.643 15C99.5068 15 98.3175 17.5557 97.8269 20.3104C97.4488 22.4336 97.2657 25.8032 98.03 28.4069C99.1476 32.2174 101.845 31.39 103.135 28.743ZM82.4587 22.9111C82.3322 25.3028 81.8761 27.3022 81.1441 28.7545C79.8198 31.383 77.1998 32.2164 76.0443 28.4184C75.2113 25.6795 75.4949 21.9453 75.8414 19.928C76.3556 16.9344 77.6433 14.8121 79.6535 15.0132C81.7184 15.2196 82.7222 17.9344 82.4587 22.9111ZM0.747929 10.7338C2.01318 5.64848 6.01929 1.59998 9.66339 0.165128C11.1876 -0.43512 14.4172 0.713266 14.44 1.80785C14.5186 5.59477 14.5009 11.5137 14.4912 14.7684C14.4895 15.349 14.488 15.8449 14.4873 16.2287C14.4869 16.4872 14.4865 16.764 14.4861 17.0557C14.4824 19.8835 14.4768 24.1243 14.375 26.8926C14.2818 29.426 13.7636 31.7588 12.2832 33.7013C11.0485 35.3209 8.9157 36.3259 8.41613 35.9034C8.1093 35.644 8.29142 35.1004 8.55443 34.3153C8.67443 33.9571 8.81126 33.5486 8.92618 33.094C9.2885 31.6619 9.49018 30.2127 9.49018 25.6234C9.49018 23.6636 9.5257 17.41 9.55569 12.13C9.57761 8.27241 9.59657 4.9345 9.59657 4.17025C9.59657 4.12546 9.59661 4.08157 9.59666 4.03864C9.59764 3.11132 9.59815 2.62802 9.12098 3.00384C6.43345 5.12034 4.29823 9.94401 4.78731 14.261C4.99217 16.07 5.62472 17.0038 6.05994 17.6463C6.42883 18.191 6.65594 18.5262 6.36063 19.0077C5.81371 19.8998 -0.854458 17.1754 0.747929 10.7338Z" fill="#262626"/>
</svg>
