<svg width="24" height="22" viewBox="0 0 24 22" fill="none" xmlns="http://www.w3.org/2000/svg">
<path fill-rule="evenodd" clip-rule="evenodd" d="M11.8725 3.15902L11.2175 2.39341C8.58142 -0.242626 4.37761 -0.0629938 1.74157 2.57305C-0.894471 5.20908 -0.387159 10.3054 2.24888 12.9415C3.31874 14.0113 4.92092 15.4926 7.05542 17.3854L8.85115 18.9651L10.8681 20.7159C11.4234 21.1952 12.2439 21.2025 12.8077 20.7332L14.4416 19.3633C17.3029 16.9452 19.4262 15.0405 20.8115 13.6494L21.171 13.2827L21.4939 12.9415C23.9489 10.294 24.5798 5.14778 22.005 2.57305L21.8185 2.39341C19.1711 -0.061568 15.179 -0.181323 12.6042 2.39341L11.8725 3.15902ZM2.80223 3.63371C4.88666 1.54928 8.11137 1.45155 10.118 3.41573L11.8111 5.39439L13.6886 3.42978C15.6145 1.50446 18.6838 1.53229 20.7986 3.49329L20.9645 3.65348C22.7839 5.47328 22.4744 9.67802 20.394 11.9215L20.0815 12.2516L19.7348 12.6051C18.5864 13.7576 16.8845 15.3017 14.6405 17.2247L13.4734 18.2177L11.8481 19.5803L9.83442 17.8324L8.39319 16.5664C6.36239 14.7715 4.79575 13.3359 3.69885 12.2652L3.30954 11.8808C1.138 9.70925 0.866398 5.56954 2.80223 3.63371Z" fill="#262626"/>
</svg>
