<svg width="345" height="14" viewBox="0 0 345 14" fill="none" xmlns="http://www.w3.org/2000/svg">
<path d="M168.422 11.2109C165.943 11.2109 164.42 9.49414 164.42 6.77539V6.76367C164.42 4.03906 165.967 2.33398 168.422 2.33398C170.883 2.33398 172.418 4.03906 172.418 6.76367V6.77539C172.418 9.49414 170.889 11.2109 168.422 11.2109ZM168.422 9.9043C169.928 9.9043 170.877 8.67383 170.877 6.77539V6.76367C170.877 4.85352 169.922 3.64062 168.422 3.64062C166.922 3.64062 165.961 4.85352 165.961 6.76367V6.77539C165.961 8.67383 166.898 9.9043 168.422 9.9043ZM174.152 11V2.54492H177.568C179.385 2.54492 180.475 3.55859 180.475 5.16992V5.18164C180.475 6.30078 179.883 7.22656 178.881 7.58984L180.727 11H178.998L177.34 7.81836H175.664V11H174.152ZM175.664 6.6582H177.41C178.365 6.6582 178.922 6.125 178.922 5.2168V5.20508C178.922 4.32031 178.342 3.76953 177.381 3.76953H175.664V6.6582Z" fill="#999999"/>
<path d="M1 6.5H133" stroke="black" stroke-opacity="0.2" stroke-width="0.33" stroke-linecap="square"/>
<path d="M212 6.5H344" stroke="black" stroke-opacity="0.2" stroke-width="0.33" stroke-linecap="square"/>
</svg>
